<mxfile host="app.diagrams.net" modified="2021-03-20T14:32:59.210Z" agent="5.0 (Windows NT 10.0; Win64; x64) AppleWebKit/537.36 (KHTML, like Gecko) Chrome/89.0.4389.90 Safari/537.36" etag="da--i7KHI1Gu-O6A59Xj" version="14.4.9" type="github">
  <diagram id="Mexyh-QVfdH1IOvwsXVK" name="Page-1">
    <mxGraphModel dx="2031" dy="1134" grid="1" gridSize="10" guides="1" tooltips="1" connect="1" arrows="1" fold="1" page="1" pageScale="1" pageWidth="1654" pageHeight="1169" math="0" shadow="0">
      <root>
        <mxCell id="0" />
        <mxCell id="1" parent="0" />
        <mxCell id="7seke5HGJvDBwEhgYmq8-1" value="Actor" style="shape=umlActor;verticalLabelPosition=bottom;verticalAlign=top;html=1;" vertex="1" parent="1">
          <mxGeometry x="190" y="170" width="40" height="80" as="geometry" />
        </mxCell>
        <mxCell id="7seke5HGJvDBwEhgYmq8-2" value="" style="whiteSpace=wrap;html=1;aspect=fixed;strokeColor=#474747;" vertex="1" parent="1">
          <mxGeometry x="440" y="120" width="800" height="800" as="geometry" />
        </mxCell>
      </root>
    </mxGraphModel>
  </diagram>
</mxfile>
